<svg width="24" height="24" viewBox="0 0 24 24" fill="none" xmlns="http://www.w3.org/2000/svg">
    <path d="M12.0201 2.90985C8.71009 2.90985 6.02009 5.59985 6.02009 8.90985V11.7999C6.02009 12.4099 5.76009 13.3399 5.45009 13.8599L4.30009 15.7699C3.59009 16.9499 4.08009 18.2599 5.38009 18.6999C9.69009 20.1399 14.3401 20.1399 18.6501 18.6999C19.8601 18.2999 20.3901 16.8699 19.7301 15.7699L18.5801 13.8599C18.2801 13.3399 18.0201 12.4099 18.0201 11.7999V8.90985C18.0201 5.60985 15.3201 2.90985 12.0201 2.90985Z" stroke="#B8B5C6" stroke-width="1.5" stroke-miterlimit="10" stroke-linecap="round"/>
    <path d="M13.8699 3.2008C13.5599 3.1108 13.2399 3.0408 12.9099 3.0008C11.9499 2.8808 11.0299 2.9508 10.1699 3.2008C10.4599 2.4608 11.1799 1.9408 12.0199 1.9408C12.8599 1.9408 13.5799 2.4608 13.8699 3.2008Z" stroke="#B8B5C6" stroke-width="1.5" stroke-miterlimit="10" stroke-linecap="round" stroke-linejoin="round"/>
    <path d="M15.02 19.0592C15.02 20.7092 13.67 22.0592 12.02 22.0592C11.2 22.0592 10.44 21.7192 9.90002 21.1792C9.36002 20.6392 9.02002 19.8792 9.02002 19.0592" stroke="#B8B5C6" stroke-width="1.5" stroke-miterlimit="10"/>
    </svg>
    