<svg width="19" height="21" viewBox="0 0 19 21" fill="none" xmlns="http://www.w3.org/2000/svg">
    <path d="M3.7395 5.85033C2.0496 6.77702 1.47102 8.82936 2.44677 10.4344C3.17669 11.6362 4.5711 12.2464 5.93508 12.0882L4.20637 13.3375C2.51647 14.2642 1.93789 16.3165 2.91364 17.9216C3.88844 19.5266 6.04903 20.0765 7.73893 19.1498L15.7607 14.7497C17.4496 13.823 18.0282 11.7706 17.0534 10.1656C16.2688 8.87505 14.7192 8.26662 13.2635 8.55938L15.2938 7.26252C16.9828 6.33584 17.5613 4.28349 16.5866 2.67844C15.6108 1.07339 13.4512 0.523479 11.7613 1.45016L3.7395 5.85033Z" stroke="#B8B5C6" stroke-width="2" stroke-linejoin="round"/>
    <path d="M9.27588 9.61888L10.1277 10.1106L9.27588 10.6024L9.27588 9.61888Z" fill="#3D3D3D" stroke="#B8B5C6" stroke-width="2"/>
    </svg>
    