<svg width="25" height="25" viewBox="0 0 25 25" fill="none" xmlns="http://www.w3.org/2000/svg">
    <path d="M21.25 0H3.75C2.75577 0.00108524 1.80257 0.396522 1.09955 1.09955C0.396522 1.80257 0.00108524 2.75577 0 3.75V16.25C0.00108524 17.2442 0.396522 18.1974 1.09955 18.9005C1.80257 19.6035 2.75577 19.9989 3.75 20H18.2324L22.8662 24.6338C23.041 24.8086 23.2637 24.9277 23.5062 24.9759C23.7486 25.0242 24 24.9994 24.2284 24.9048C24.4568 24.8102 24.652 24.65 24.7894 24.4445C24.9267 24.2389 25 23.9972 25 23.75V3.75C24.9989 2.75577 24.6035 1.80257 23.9005 1.09955C23.1974 0.396522 22.2442 0.00108524 21.25 0V0ZM18.75 13.75H6.25C5.91848 13.75 5.60054 13.6183 5.36612 13.3839C5.1317 13.1495 5 12.8315 5 12.5C5 12.1685 5.1317 11.8505 5.36612 11.6161C5.60054 11.3817 5.91848 11.25 6.25 11.25H18.75C19.0815 11.25 19.3995 11.3817 19.6339 11.6161C19.8683 11.8505 20 12.1685 20 12.5C20 12.8315 19.8683 13.1495 19.6339 13.3839C19.3995 13.6183 19.0815 13.75 18.75 13.75ZM18.75 8.75H6.25C5.91848 8.75 5.60054 8.6183 5.36612 8.38388C5.1317 8.14946 5 7.83152 5 7.5C5 7.16848 5.1317 6.85054 5.36612 6.61612C5.60054 6.3817 5.91848 6.25 6.25 6.25H18.75C19.0815 6.25 19.3995 6.3817 19.6339 6.61612C19.8683 6.85054 20 7.16848 20 7.5C20 7.83152 19.8683 8.14946 19.6339 8.38388C19.3995 8.6183 19.0815 8.75 18.75 8.75Z" fill="white"/>
    </svg>
    