<svg width="31" height="30" viewBox="0 0 31 30" fill="none" xmlns="http://www.w3.org/2000/svg">
    <path d="M20.0123 6.87502V19.575C20.0123 20.075 19.8623 20.5625 19.5873 20.975L16.1748 26.05C15.6373 26.8625 14.2998 27.4375 13.1623 27.0125C11.9373 26.6 11.1248 25.225 11.3873 24L12.0373 19.9125C12.0873 19.5375 11.9873 19.2 11.7748 18.9375C11.5623 18.7 11.2498 18.55 10.9123 18.55H5.77477C4.78727 18.55 3.93728 18.15 3.43728 17.45C2.96228 16.775 2.87478 15.9 3.18728 15.0125L6.26228 5.65002C6.64978 4.10002 8.33728 2.83752 10.0123 2.83752H14.8873C15.7248 2.83752 16.8998 3.12502 17.4373 3.66252L19.0373 4.90002C19.6498 5.37502 20.0123 6.10002 20.0123 6.87502Z" fill="white"/>
    <path d="M23.9877 22.0125H25.2752C27.2127 22.0125 28.0002 21.2625 28.0002 19.4125V6.85C28.0002 5 27.2127 4.25 25.2752 4.25H23.9877C22.0502 4.25 21.2627 5 21.2627 6.85V19.425C21.2627 21.2625 22.0502 22.0125 23.9877 22.0125Z" fill="white"/>
    </svg>
    