<svg width="200" height="200" viewBox="0 0 200 200" fill="none" xmlns="http://www.w3.org/2000/svg">
    <path d="M100 189.583C50.5834 189.583 10.4167 149.417 10.4167 100C10.4167 50.5833 50.5834 10.4167 100 10.4167C149.417 10.4167 189.583 50.5833 189.583 100C189.583 149.417 149.417 189.583 100 189.583ZM100 22.9167C57.5001 22.9167 22.9167 57.5 22.9167 100C22.9167 142.5 57.5001 177.083 100 177.083C142.5 177.083 177.083 142.5 177.083 100C177.083 57.5 142.5 22.9167 100 22.9167Z" fill="url(#paint0_linear_201_461)"/>
    <path d="M88.1668 129.833C86.5001 129.833 84.9168 129.167 83.7501 128L60.1667 104.417C57.7501 102 57.7501 98 60.1667 95.5833C62.5834 93.1667 66.5834 93.1667 69.0001 95.5833L88.1668 114.75L131 71.9167C133.417 69.5 137.417 69.5 139.833 71.9167C142.25 74.3333 142.25 78.3333 139.833 80.75L92.5834 128C91.4168 129.167 89.8334 129.833 88.1668 129.833Z" fill="url(#paint1_linear_201_461)"/>
    <defs>
    <linearGradient id="paint0_linear_201_461" x1="100" y1="10.4168" x2="100" y2="189.583" gradientUnits="userSpaceOnUse">
    <stop stop-color="#C400C4"/>
    <stop offset="1" stop-color="#E97BA9" stop-opacity="0.76"/>
    </linearGradient>
    <linearGradient id="paint1_linear_201_461" x1="100" y1="70.1042" x2="100" y2="129.833" gradientUnits="userSpaceOnUse">
    <stop stop-color="#C400C4"/>
    <stop offset="1" stop-color="#E97BA9" stop-opacity="0.76"/>
    </linearGradient>
    </defs>
    </svg>
    