<svg width="20" height="19" viewBox="0 0 20 19" fill="none" xmlns="http://www.w3.org/2000/svg">
    <path fill-rule="evenodd" clip-rule="evenodd" d="M20 8.43137V15.2679C20 17.1089 18.5076 18.6012 16.6667 18.6012H15.4444C14.8922 18.6012 14.4444 18.1535 14.4444 17.6012V17.379C14.4444 16.8267 14.8922 16.379 15.4444 16.379H16.6667C17.2803 16.379 17.7778 15.8816 17.7778 15.2679V8.43137C17.7778 8.0853 17.6165 7.75898 17.3416 7.54875L10.6749 2.45071C10.2765 2.14606 9.72345 2.14606 9.32506 2.45071L2.65839 7.54875C2.38348 7.75898 2.22222 8.0853 2.22222 8.43137V15.2679C2.22222 15.8816 2.71968 16.379 3.33333 16.379H4.55556C5.10784 16.379 5.55556 16.8267 5.55556 17.379V17.6012C5.55556 18.1535 5.10784 18.6012 4.55556 18.6012H3.33333C1.49239 18.6012 0 17.1089 0 15.2679V8.43137C0 7.39314 0.48377 6.41419 1.3085 5.78351L7.97517 0.685473C9.17036 -0.228495 10.8297 -0.228488 12.0248 0.685474L18.6915 5.78351C19.5162 6.41419 20 7.39314 20 8.43137ZM9.88911 8.82349H10.1113C11.7682 8.82349 13.1113 10.1666 13.1113 11.8235V15.379C13.1113 17.0359 11.7682 18.379 10.1113 18.379H9.88911C8.23225 18.379 6.88911 17.0359 6.88911 15.379V11.8235C6.88911 10.1666 8.23225 8.82349 9.88911 8.82349ZM11.1113 11.8235C11.1113 11.2712 10.6636 10.8235 10.1113 10.8235H9.88911C9.33682 10.8235 8.88911 11.2712 8.88911 11.8235V15.379C8.88911 15.9313 9.33682 16.379 9.88911 16.379H10.1113C10.6636 16.379 11.1113 15.9313 11.1113 15.379V11.8235Z" fill="#B8B5C6"/>
    </svg>
    