<svg width="19" height="19" viewBox="0 0 19 19" fill="#B8B5C6" xmlns="http://www.w3.org/2000/svg">
    <path d="M15.4606 14.88H13.7105C13.1969 14.88 12.7805 14.4636 12.7805 13.95C12.7805 13.4364 13.1969 13.02 13.7105 13.02H16.0355C16.0904 13.02 16.1442 13.0248 16.1965 13.0339C16.3155 12.6629 16.4261 12.2731 16.5283 11.8644C16.5887 11.6228 16.6428 11.3879 16.6906 11.16H14.6405C14.1269 11.16 13.7105 10.7436 13.7105 10.23C13.7105 9.71638 14.1269 9.3 14.6405 9.3H16.952C16.9725 8.93759 16.9697 8.60172 16.9439 8.2927C16.9037 7.81072 16.5008 7.44 16.0172 7.44H7.20052C6.17327 7.44 5.34052 6.60725 5.34052 5.58V2.5575C5.34052 2.17228 5.02824 1.86 4.64302 1.86C4.17426 1.86 3.77728 2.20566 3.71279 2.66996L2.05249 14.6241C2.04071 14.7089 2.0348 14.7944 2.0348 14.88C2.0348 15.9072 2.86756 16.74 3.8948 16.74H13.3244C13.9497 16.74 14.5332 16.4258 14.8774 15.9037C15.0838 15.5905 15.2783 15.2493 15.4606 14.88ZM18.7975 8.13808C18.8951 9.30811 18.7372 10.6977 18.3328 12.3156C17.8711 14.1621 17.2395 15.6998 16.4303 16.9274C15.742 17.9716 14.575 18.6 13.3244 18.6H3.8948C1.84031 18.6 0.174805 16.9345 0.174805 14.88C0.174805 14.7088 0.186622 14.5378 0.210173 14.3682L1.87047 2.41409C2.06268 1.03023 3.24588 0 4.64302 0C6.05549 0 7.20052 1.14503 7.20052 2.5575V5.58H16.0172C17.4681 5.58003 18.6769 6.69216 18.7975 8.13808Z" />
    </svg>
    