<svg width="31" height="30" viewBox="0 0 31 30" fill="none" xmlns="http://www.w3.org/2000/svg">
    <path d="M10.9878 23.1125V10.4125C10.9878 9.91247 11.1378 9.42497 11.4128 9.01247L14.8253 3.93747C15.3628 3.12497 16.7003 2.54997 17.8378 2.97497C19.0628 3.38747 19.8753 4.76247 19.6128 5.98747L18.9628 10.075C18.9128 10.45 19.0128 10.7875 19.2253 11.05C19.4378 11.2875 19.7503 11.4375 20.0878 11.4375H25.2253C26.2128 11.4375 27.0628 11.8375 27.5628 12.5375C28.0378 13.2125 28.1253 14.0875 27.8128 14.975L24.7378 24.3375C24.3503 25.8875 22.6628 27.15 20.9878 27.15H16.1128C15.2753 27.15 14.1003 26.8625 13.5628 26.325L11.9628 25.0875C11.3503 24.625 10.9878 23.8875 10.9878 23.1125Z" fill="white"/>
    <path d="M7.0125 7.97498H5.725C3.7875 7.97498 3 8.72498 3 10.575V23.15C3 25 3.7875 25.75 5.725 25.75H7.0125C8.95 25.75 9.7375 25 9.7375 23.15V10.575C9.7375 8.72498 8.95 7.97498 7.0125 7.97498Z" fill="white"/>
    </svg>
    