<svg width="149" height="41" viewBox="0 0 149 41" fill="none" xmlns="http://www.w3.org/2000/svg">
    <path d="M35.9474 11.4363H44.2707C45.2866 11.4363 46.2369 11.6329 47.0561 12.0261C47.9081 12.4194 48.5634 12.9764 49.0222 13.6646C49.5137 14.3527 49.7431 15.1392 49.7431 15.9912C49.7431 16.8432 49.5137 17.5968 49.0222 18.285C48.5307 18.9731 47.8753 19.4974 47.0233 19.8579C47.9408 20.2511 48.6617 20.8082 49.1861 21.5619C49.7104 22.2828 49.9725 23.102 49.9725 24.0195C49.9725 24.9698 49.7104 25.7891 49.2188 26.5427C48.7273 27.2964 48.0391 27.8863 47.1544 28.3123C46.2696 28.7383 45.3193 28.9676 44.238 28.9676H35.9147V11.4363H35.9474ZM44.2707 18.5799C44.8933 18.5799 45.4176 18.3505 45.8436 17.9245C46.2696 17.4985 46.4662 16.9742 46.4662 16.3844C46.4662 15.7946 46.2696 15.2703 45.8436 14.8443C45.4176 14.4183 44.8933 14.1889 44.2707 14.1889H39.126V18.5799H44.2707ZM44.2707 26.2806C44.9589 26.2806 45.5487 26.0512 46.0075 25.5597C46.4662 25.0681 46.6956 24.4783 46.6956 23.7574C46.6956 23.0692 46.4662 22.4466 46.0075 21.9551C45.5487 21.4636 44.9589 21.2342 44.2707 21.2342H39.126V26.2806H44.2707Z" fill="black"/>
    <path d="M52.7906 17.4003C53.3149 16.45 54.0686 15.7291 55.0517 15.2048C56.0347 14.6804 57.1489 14.4183 58.4269 14.4183V17.2692C57.4438 17.2692 56.6574 17.5969 56.0675 18.1867C55.4777 18.8093 55.1828 19.6285 55.1828 20.6444V29.0004H52.0042V20.6771C51.9714 19.4319 52.2336 18.3506 52.7906 17.4003Z" fill="black"/>
    <path d="M63.6044 14.4183H60.4258V29.0332H63.6044V14.4183Z" fill="black"/>
    <path d="M71.5344 33.3915V30.5406H74.0249C74.6147 30.5406 75.139 30.4095 75.6305 30.1146C76.1221 29.8197 76.5153 29.4592 76.8102 28.9677C77.1051 28.4762 77.2362 27.9519 77.269 27.3948C76.8102 27.9519 76.1876 28.4106 75.4011 28.8039C74.6147 29.1971 73.6972 29.3937 72.6486 29.3937C71.305 29.3937 70.0926 29.066 69.0112 28.3779C67.9298 27.7225 67.1106 26.805 66.488 25.658C65.8982 24.5111 65.6033 23.2659 65.6033 21.8896C65.6033 20.5461 65.9309 19.3009 66.6191 18.154C67.3072 17.0071 68.192 16.1223 69.3389 15.4342C70.4858 14.7788 71.731 14.4511 73.0746 14.4511C74.4181 14.4511 75.6633 14.7788 76.7447 15.4669C77.8588 16.1551 78.7108 17.0398 79.3662 18.1867C79.9888 19.3337 80.3165 20.5789 80.3165 21.9224V27.5586C80.3165 29.3937 79.8249 30.8355 78.8091 31.8514C77.7933 32.9 76.2204 33.3915 74.0576 33.3915H71.5344ZM69.4372 24.2818C69.8304 24.9699 70.322 25.527 70.9774 25.953C71.6327 26.379 72.3209 26.5756 73.0746 26.5756C73.8282 26.5756 74.5164 26.379 75.1718 25.953C75.8271 25.527 76.3187 25.0027 76.7119 24.2818C77.1051 23.5936 77.269 22.8072 77.269 21.9224C77.269 21.0704 77.0724 20.284 76.7119 19.5958C76.3187 18.9077 75.8271 18.3506 75.1718 17.9246C74.5164 17.5314 73.8282 17.3348 73.0746 17.3348C72.3209 17.3348 71.6327 17.5314 70.9774 17.9246C70.322 18.3178 69.8304 18.8749 69.4372 19.5958C69.044 20.284 68.8801 21.0704 68.8801 21.9224C68.8801 22.8072 69.044 23.5936 69.4372 24.2818Z" fill="black"/>
    <path d="M82.2826 11.4363H85.4612V16.5155C85.7233 15.9584 86.1821 15.4669 86.8702 15.0409C87.5584 14.6476 88.4431 14.4183 89.5573 14.4183C90.5731 14.4183 91.4906 14.6804 92.3426 15.2047C93.1946 15.729 93.8828 16.4827 94.4071 17.4002C94.9314 18.3505 95.1608 19.4319 95.1608 20.6443V29.0004H91.9822V20.6771C91.9822 19.6613 91.6873 18.8421 91.0974 18.2195C90.5076 17.5968 89.7211 17.3019 88.7381 17.3019C87.755 17.3019 86.9685 17.5968 86.3787 18.2195C85.7889 18.8421 85.4939 19.6613 85.4939 20.6771V29.0332H82.3154V11.4363H82.2826Z" fill="black"/>
    <path d="M100.371 11.4363V14.746H102.993V17.5968H100.371V29.0004H97.1924V11.4363H100.371Z" fill="black"/>
    <path d="M107.941 25.8874C108.399 26.3462 109.055 26.5756 109.94 26.5756C110.628 26.5756 111.152 26.4117 111.545 26.1168C111.938 25.8219 112.135 25.4286 112.135 24.9699C112.135 24.5439 112.004 24.2162 111.742 23.9541C111.48 23.6919 111.152 23.4953 110.759 23.3642C110.366 23.2331 109.841 23.0693 109.12 22.8727C108.17 22.6433 107.351 22.3811 106.761 22.119C106.138 21.8568 105.614 21.4308 105.188 20.8738C104.762 20.3167 104.533 19.5303 104.533 18.5472C104.533 17.7607 104.762 17.0398 105.221 16.4172C105.68 15.7946 106.302 15.2703 107.089 14.9098C107.875 14.5494 108.76 14.3528 109.743 14.3528C110.726 14.3528 111.611 14.5494 112.43 14.9426C113.249 15.3358 113.872 15.8929 114.331 16.5811C114.789 17.2692 115.019 18.0229 115.019 18.8093H111.709C111.709 18.3833 111.512 18.0229 111.119 17.6624C110.726 17.3347 110.267 17.1709 109.71 17.1709C109.153 17.1709 108.662 17.302 108.268 17.5641C107.875 17.8263 107.711 18.154 107.711 18.5144C107.711 18.8749 107.842 19.1698 108.104 19.3992C108.367 19.6286 108.694 19.8252 109.088 19.9563C109.481 20.0873 110.038 20.2512 110.726 20.4478C111.709 20.7099 112.528 20.9721 113.151 21.2342C113.773 21.4964 114.331 21.8896 114.757 22.4467C115.215 23.0038 115.412 23.6919 115.412 24.6094C115.412 25.527 115.15 26.3462 114.658 27.0671C114.167 27.788 113.479 28.3778 112.594 28.7711C111.709 29.1971 110.759 29.3937 109.645 29.3937C108.596 29.3937 107.646 29.1643 106.794 28.6728C105.942 28.1812 105.254 27.5586 104.762 26.7394C104.271 25.9202 104.041 25.0027 104.041 23.9868H107.22C107.252 24.806 107.482 25.4286 107.941 25.8874Z" fill="black"/>
    <path d="M131.633 25.9529C131.043 27.0343 130.223 27.8535 129.142 28.4433C128.061 29.0332 126.815 29.3281 125.406 29.3281C123.997 29.3281 122.752 29.0332 121.671 28.4433C120.589 27.8535 119.77 27.0015 119.18 25.9529C118.591 24.8715 118.296 23.6263 118.296 22.2173V11.4363H121.474V22.5449C121.474 23.2659 121.638 23.954 121.998 24.5438C122.326 25.1337 122.818 25.6252 123.408 25.9529C123.997 26.3134 124.686 26.4772 125.406 26.4772C126.127 26.4772 126.815 26.3134 127.405 25.9529C127.995 25.6252 128.487 25.1337 128.814 24.5438C129.142 23.954 129.339 23.2659 129.339 22.5449V11.4363H132.517V22.1845C132.517 23.6263 132.222 24.8715 131.633 25.9529Z" fill="#C400C4"/>
    <path d="M135.237 18.2195C135.86 17.0726 136.744 16.1878 137.859 15.4997C138.973 14.8443 140.185 14.5166 141.529 14.5166C142.872 14.5166 144.117 14.8443 145.264 15.4997C146.411 16.1551 147.329 17.0726 147.984 18.2195C148.672 19.3664 149 20.6116 149 21.9552C149 23.2987 148.672 24.5439 148.017 25.6908C147.362 26.8377 146.477 27.7552 145.395 28.4106C144.314 29.0988 143.167 29.4265 141.955 29.4265C141.037 29.4265 140.152 29.2298 139.3 28.8366C138.448 28.4434 137.826 28.0502 137.465 27.5914V33.3915H134.287V21.9224C134.287 20.5789 134.614 19.3336 135.237 18.2195ZM137.924 24.2817C138.317 24.9699 138.809 25.527 139.464 25.953C140.12 26.3789 140.808 26.5756 141.561 26.5756C142.315 26.5756 143.003 26.3789 143.659 25.953C144.314 25.527 144.806 25.0027 145.199 24.2817C145.592 23.5936 145.756 22.8071 145.756 21.9224C145.756 21.0704 145.559 20.2839 145.199 19.5958C144.806 18.9076 144.314 18.3506 143.659 17.9246C143.003 17.5314 142.315 17.3347 141.561 17.3347C140.808 17.3347 140.12 17.5314 139.464 17.9246C138.809 18.3178 138.317 18.8749 137.924 19.5958C137.531 20.2839 137.367 21.0704 137.367 21.9224C137.334 22.8071 137.531 23.5936 137.924 24.2817Z" fill="#C400C4"/>
    <path d="M26.8049 27.4931C26.8049 34.8988 20.7755 40.9283 13.3369 40.8955C5.96393 40.8955 0 34.7678 0 27.362V9.01145C0 8.58546 0.0327689 8.19223 0.0655377 7.799C0.786453 11.7313 4.22718 14.7132 8.38883 14.7132C8.88036 14.7132 9.37189 14.6805 9.83066 14.5822C10.0273 14.5494 10.2239 14.5166 10.4533 14.4511C10.8465 14.3528 11.2397 14.2545 11.6657 14.2217C12.2556 14.1562 12.8454 14.0906 13.4352 14.0906C14.4183 14.0906 15.3686 14.1889 16.2534 14.3855C22.2828 15.6963 26.8049 21.0704 26.8049 27.4931Z" fill="#C400C4"/>
    <path d="M16.581 4.09611C14.9754 1.63844 12.19 0 9.01144 0C4.45657 0 0.688152 3.40796 0.0655441 7.79899C0.786459 11.7313 4.22719 14.7132 8.38883 14.7132C8.88037 14.7132 9.3719 14.6804 9.83066 14.5821L10.8465 14.3528C11.6657 14.1889 12.5505 14.0906 13.4025 14.0906C14.3855 14.0906 15.3358 14.1889 16.2206 14.3855C17.3675 12.9109 18.0229 11.0431 18.0229 9.01144C18.0229 7.20915 17.4986 5.50517 16.581 4.09611Z" fill="#F8E0F5"/>
    <g opacity="0.2">
    <path d="M13.0748 35.2921L21.1687 29.3937C22.7416 28.2468 22.7416 25.9202 21.1687 24.8061L13.0748 18.9077C11.2069 17.5314 8.55267 18.8749 8.55267 21.2015V32.9655C8.55267 35.3249 11.2069 36.6684 13.0748 35.2921Z" fill="white"/>
    </g>
    <path d="M11.8951 35.3248L19.989 29.4264C21.5619 28.2795 21.5619 25.9529 19.989 24.8388L11.8951 18.9404C10.0273 17.5641 7.37299 18.9076 7.37299 21.2342V32.9982C7.37299 35.3576 10.0273 36.7011 11.8951 35.3248Z" fill="white"/>
    </svg>
    