<svg width="25" height="25" viewBox="0 0 25 25" fill="none" xmlns="http://www.w3.org/2000/svg">
    <path d="M12.2207 14.6824C13.3253 14.6824 14.2207 13.7869 14.2207 12.6824C14.2207 11.5778 13.3253 10.6824 12.2207 10.6824C11.1161 10.6824 10.2207 11.5778 10.2207 12.6824C10.2207 13.7869 11.1161 14.6824 12.2207 14.6824Z" stroke="white" stroke-width="1.5" stroke-linecap="round" stroke-linejoin="round"/>
    <path d="M20.2207 18.6824C21.4807 17.0124 22.2207 14.9324 22.2207 12.6824C22.2207 10.4324 21.4807 8.35237 20.2207 6.68237" stroke="white" stroke-width="1.5" stroke-linecap="round" stroke-linejoin="round"/>
    <path d="M4.2207 6.68237C2.9607 8.35237 2.2207 10.4324 2.2207 12.6824C2.2207 14.9324 2.9607 17.0124 4.2207 18.6824" stroke="white" stroke-width="1.5" stroke-linecap="round" stroke-linejoin="round"/>
    <path d="M17.0205 16.2824C17.7705 15.2824 18.2205 14.0324 18.2205 12.6824C18.2205 11.3324 17.7705 10.0824 17.0205 9.0824" stroke="white" stroke-width="1.5" stroke-linecap="round" stroke-linejoin="round"/>
    <path d="M7.42072 9.0824C6.67072 10.0824 6.2207 11.3324 6.2207 12.6824C6.2207 14.0324 6.67072 15.2824 7.42072 16.2824" stroke="white" stroke-width="1.5" stroke-linecap="round" stroke-linejoin="round"/>
    </svg>
    