<svg width="27" height="27" viewBox="0 0 27 27" fill="none" xmlns="http://www.w3.org/2000/svg">
    <g clip-path="url(#clip0_45_327)">
    <path d="M21.8469 16.1948C21.012 16.1955 20.1899 16.3993 19.4514 16.7887C18.7129 17.178 18.0802 17.7412 17.608 18.4297L10.4209 15.1845C10.9314 13.9519 10.9334 12.5673 10.4265 11.3332L17.6035 8.07149C18.3034 9.08374 19.343 9.81161 20.5336 10.1231C21.7241 10.4345 22.9869 10.309 24.0929 9.76915C25.1988 9.22931 26.0746 8.31098 26.5615 7.18072C27.0483 6.05046 27.1139 4.78314 26.7464 3.60864C26.3789 2.43414 25.6027 1.43025 24.5584 0.77908C23.5141 0.127907 22.2711 -0.127422 21.0547 0.0594069C19.8383 0.246236 18.7291 0.862848 17.9284 1.7974C17.1277 2.73194 16.6885 3.92252 16.6904 5.15318C16.6951 5.44445 16.7246 5.7348 16.7787 6.02105L9.14895 9.48814C8.41616 8.80158 7.49878 8.34404 6.50952 8.17171C5.52026 7.99937 4.5022 8.11976 3.58043 8.51808C2.65865 8.9164 1.87329 9.57529 1.32084 10.4138C0.768398 11.2524 0.472922 12.234 0.470716 13.2382C0.468509 14.2423 0.759669 15.2252 1.30843 16.0662C1.85718 16.9072 2.63963 17.5695 3.55965 17.9719C4.47967 18.3742 5.49719 18.4991 6.4872 18.3311C7.4772 18.1631 8.39658 17.7096 9.13238 17.0263L16.782 20.4801C16.7289 20.7661 16.6997 21.056 16.6948 21.3469C16.6946 22.3662 16.9967 23.3626 17.5628 24.2102C18.129 25.0578 18.9338 25.7185 19.8754 26.1087C20.8171 26.4988 21.8533 26.601 22.853 26.4022C23.8527 26.2034 24.771 25.7126 25.4918 24.9918C26.2125 24.2711 26.7033 23.3528 26.9021 22.3531C27.1009 21.3533 26.9988 20.3171 26.6086 19.3755C26.2185 18.4338 25.5578 17.629 24.7102 17.0628C23.8626 16.4967 22.8661 16.1946 21.8469 16.1948ZM21.8469 2.20836C22.4293 2.20814 22.9988 2.38067 23.4832 2.70412C23.9676 3.02756 24.3452 3.4874 24.5683 4.02548C24.7914 4.56355 24.8498 5.15569 24.7363 5.727C24.6228 6.29831 24.3424 6.82313 23.9307 7.23508C23.5189 7.64703 22.9941 7.92761 22.4229 8.04132C21.8516 8.15504 21.2594 8.09679 20.7213 7.87393C20.1831 7.65108 19.7231 7.27364 19.3995 6.78934C19.0759 6.30505 18.9032 5.73565 18.9032 5.15318C18.9037 4.37253 19.214 3.62402 19.7659 3.07191C20.3178 2.51981 21.0662 2.20924 21.8469 2.20836ZM5.65316 16.1948C5.07068 16.1951 4.50122 16.0225 4.01681 15.6991C3.53239 15.3756 3.15477 14.9158 2.93172 14.3777C2.70866 13.8397 2.65019 13.2475 2.76369 12.6762C2.87719 12.1049 3.15757 11.5801 3.56937 11.1681C3.98116 10.7562 4.50587 10.4756 5.07714 10.3619C5.64841 10.2482 6.24057 10.3064 6.77873 10.5293C7.31689 10.7521 7.77687 11.1296 8.1005 11.6139C8.42413 12.0982 8.59686 12.6676 8.59686 13.25C8.59599 14.0306 8.2856 14.7789 7.73377 15.331C7.18194 15.883 6.43371 16.1937 5.65316 16.1948ZM21.8469 24.2917C21.2644 24.2917 20.6951 24.119 20.2108 23.7954C19.7265 23.4718 19.3491 23.0119 19.1262 22.4738C18.9033 21.9357 18.845 21.3436 18.9586 20.7724C19.0723 20.2011 19.3527 19.6764 19.7646 19.2646C20.1764 18.8528 20.7011 18.5723 21.2724 18.4587C21.8436 18.345 22.4357 18.4033 22.9738 18.6262C23.5119 18.8491 23.9718 19.2266 24.2954 19.7108C24.619 20.1951 24.7917 20.7645 24.7917 21.3469C24.7911 22.1277 24.4806 22.8764 23.9285 23.4285C23.3764 23.9807 22.6277 24.2911 21.8469 24.2917Z" fill="white"/>
    </g>
    <defs>
    <clipPath id="clip0_45_327">
    <rect width="26.5" height="26.5" fill="white" transform="translate(0.5)"/>
    </clipPath>
    </defs>
    </svg>
    