<svg width="20" height="19" viewBox="0 0 20 19" fill="none" xmlns="http://www.w3.org/2000/svg">
    <path fill-rule="evenodd" clip-rule="evenodd" d="M7.4602 0C5.91932 0 4.6702 1.24913 4.6702 2.79V2.94876C3.58657 3.33176 2.8102 4.36522 2.8102 5.58V5.73876C1.72657 6.12176 0.950195 7.15522 0.950195 8.37V15.81C0.950195 17.3509 2.19932 18.6 3.7402 18.6H16.7602C18.3011 18.6 19.5502 17.3509 19.5502 15.81V8.37C19.5502 7.15522 18.7738 6.12176 17.6902 5.73876V5.58C17.6902 4.36522 16.9138 3.33176 15.8302 2.94876V2.79C15.8302 1.24913 14.5811 0 13.0402 0H7.4602ZM14.9011 4.65C14.9008 4.65 14.9005 4.65 14.9002 4.65L13.9702 4.65H6.5302L5.60019 4.65C5.59989 4.65 5.59958 4.65 5.59928 4.65C5.08607 4.6505 4.6702 5.06668 4.6702 5.58H15.8302C15.8302 5.06668 15.4143 4.6505 14.9011 4.65ZM6.5302 2.79H13.9702C13.9702 2.27638 13.5538 1.86 13.0402 1.86H7.4602C6.94657 1.86 6.5302 2.27638 6.5302 2.79ZM16.7602 7.44L16.7615 7.44C17.2745 7.4407 17.6902 7.85681 17.6902 8.37V15.81C17.6902 16.3236 17.2738 16.74 16.7602 16.74H3.7402C3.22657 16.74 2.8102 16.3236 2.8102 15.81V8.37C2.8102 7.85668 3.22607 7.4405 3.73928 7.44H3.7402L4.6702 7.44H15.8302L16.7602 7.44Z" fill="#B8B5C6"/>
    </svg>
    